PathFileType	4	(X/Y/Z)	s04c0301.trc
DataRate	CameraRate	NumFrames	NumMarkers	Units	OrigDataRate	OrigDataStartFrame	OrigNumFrames
200	200	5	50	mm	200	250	2000
Frame#	Time	racr			lacr			c7			jug			rlel			rdr			llel			ldr			s2			lic			ric			lasi			rasi			rpsi			lpsi			rgt			lgt			rth1			rth2			rth3			rth4			rlfc			rmfc			rsh1			rsh2			rsh3			rsh4			rlmal			rmmal			rcal			rtoe			rmt5			lth1			lth2			lth4			lth3			llfc			lmfc			lsh1			lsh2			lsh3			lsh4			llmal			lmmal			lcal			ltoe			lmt5			SBIKE			LBIKE			RBIKE			
		X1	Y1	Z1	X2	Y2	Z2	X3	Y3	Z3	X4	Y4	Z4	X5	Y5	Z5	X6	Y6	Z6	X7	Y7	Z7	X8	Y8	Z8	X9	Y9	Z9	X10	Y10	Z10	X11	Y11	Z11	X12	Y12	Z12	X13	Y13	Z13	X14	Y14	Z14	X15	Y15	Z15	X16	Y16	Z16	X17	Y17	Z17	X18	Y18	Z18	X19	Y19	Z19	X20	Y20	Z20	X21	Y21	Z21	X22	Y22	Z22	X23	Y23	Z23	X24	Y24	Z24	X25	Y25	Z25	X26	Y26	Z26	X27	Y27	Z27	X28	Y28	Z28	X29	Y29	Z29	X30	Y30	Z30	X31	Y31	Z31	X32	Y32	Z32	X33	Y33	Z33	X34	Y34	Z34	X35	Y35	Z35	X36	Y36	Z36	X37	Y37	Z37	X38	Y38	Z38	X39	Y39	Z39	X40	Y40	Z40	X41	Y41	Z41	X42	Y42	Z42	X43	Y43	Z43	X44	Y44	Z44	X45	Y45	Z45	X46	Y46	Z46	X47	Y47	Z47	X48	Y48	Z48	X49	Y49	Z49	X50	Y50	Z50	
250	1.2500	510.226314	1421.732545	-138.829576	509.134024	1424.273762	-425.950000	478.941921	1479.564062	-285.850130	492.610102	1331.016859	-288.275666	486.969855	1110.908650	-31.079335	694.297816	915.808057	-110.696677	487.942511	1142.286075	-541.583186	688.007693	923.113454	-482.809652	-65.359691	1197.211644	-272.265767	93.470057	1211.755266	-436.188705	105.638436	1169.958929	-119.826543	0.000000	0.000000	-0.000000	137.937052	1115.338224	-172.172339	-24.796897	1231.073309	-227.077832	-36.126157	1248.061649	-299.834110	46.116931	1112.284692	-108.719290	40.425602	1145.633949	-478.629350	116.979305	971.248314	-91.569980	170.014522	900.862641	-101.885467	183.770684	817.054852	-107.722871	201.399972	916.420135	-114.858324	234.805686	680.710845	-132.605753	211.529802	661.490880	-243.704651	182.069613	564.056491	-106.116732	171.567367	474.420490	-121.372928	117.842884	407.494533	-127.050858	201.984963	466.872183	-144.848809	72.213394	263.756076	-132.979750	91.168333	268.116778	-217.958965	-2.470763	246.563657	-170.195874	287.553258	166.420572	-162.666717	217.466423	158.119410	-106.773519	106.591484	1087.603823	-489.107905	191.758945	1073.199358	-496.186610	207.232933	1104.731941	-485.003876	259.999144	1016.471542	-503.999152	391.902881	928.306922	-487.900245	427.931014	912.724852	-379.506095	352.146833	820.333822	-502.636214	327.200623	740.673479	-475.540641	264.000981	679.261579	-467.523135	353.102671	731.649623	-447.604228	181.044539	562.496220	-451.357988	181.135198	568.769002	-362.720211	99.234233	546.223110	-404.641625	397.323580	510.894903	-422.924605	322.063962	478.506264	-480.820330	-186.150453	934.334517	-287.524741	-17.700005	78.716995	-485.575586	-17.571733	79.155466	-84.967053	
251	1.2550	512.206414	1422.248442	-139.293026	511.343187	1425.410181	-425.588977	480.325648	1480.509643	-285.866548	493.918043	1331.637461	-288.659374	486.366904	1111.371069	-30.658106	693.237163	915.994301	-110.398044	487.832181	1143.738279	-542.108534	687.154697	923.818951	-482.650481	-64.699244	1199.768193	-271.113186	92.968833	1215.170722	-436.221388	107.143786	1171.638189	-119.977185	0.000000	0.000000	-0.000000	138.848872	1117.273701	-172.971843	-23.801336	1233.683170	-226.110274	-34.750092	1250.383829	-298.927562	47.169022	1113.889291	-108.966944	39.894727	1148.234213	-478.379516	116.714836	973.193685	-91.816665	169.299977	902.451818	-102.076887	182.581408	818.564353	-107.948070	200.833952	917.960463	-114.946270	232.725250	681.866494	-132.637017	209.299461	662.509027	-243.694073	181.202797	564.602324	-105.916211	171.861927	474.802014	-121.227391	119.005509	407.186360	-126.848176	202.380472	467.597031	-144.643824	75.204583	262.793001	-132.687715	94.239380	267.316170	-217.628770	0.685410	245.851369	-169.841552	290.642800	164.977464	-162.797439	220.567272	156.842087	-106.769733	106.119118	1089.624593	-489.024437	191.217543	1074.699704	-496.142483	206.904524	1106.214754	-485.285047	259.113534	1017.548361	-503.772721	390.360236	928.986735	-487.968407	426.595981	913.310299	-379.661430	350.130387	821.351235	-502.936118	325.060935	741.588639	-475.380963	261.534732	680.535776	-467.041793	351.087773	732.444047	-447.559342	178.429252	564.001820	-451.098978	178.646751	570.035568	-362.458138	96.765252	547.944826	-404.351312	394.648872	511.577157	-423.033952	318.997152	479.622407	-480.962402	-186.198285	934.316449	-287.524831	-17.748213	78.701720	-485.561962	-17.604527	79.172775	-84.974654	
252	1.2600	514.233066	1422.860669	-139.590987	513.529858	1426.651802	-425.302681	482.105136	1481.614556	-286.054217	495.453373	1332.351071	-289.135021	485.900300	1112.156662	-30.150715	692.212988	916.276056	-110.118387	488.297818	1145.366540	-542.640625	687.185531	924.289027	-483.272530	-64.002099	1202.751790	-270.066738	92.587891	1218.542746	-436.352694	108.789614	1173.539675	-120.278704	0.000000	0.000000	-0.000000	139.874683	1119.421044	-173.784058	-22.686050	1236.257775	-225.086308	-34.050323	1253.368154	-297.726258	48.613769	1116.005709	-108.914973	39.306152	1151.159877	-478.096182	116.607550	975.490911	-92.091632	168.746935	904.357082	-102.205339	181.381758	820.351606	-108.147305	200.280539	919.699492	-115.228148	230.623447	683.202510	-132.699659	206.702728	663.693795	-243.537804	180.396330	565.334135	-105.747412	172.142126	475.437388	-121.076873	120.154258	407.137482	-126.555189	202.684238	468.575187	-144.504118	78.131169	262.032488	-132.291764	97.372789	266.631049	-217.213516	3.807899	245.543364	-169.472286	293.613763	163.632264	-162.861353	223.578876	155.757621	-106.800050	105.624865	1091.914356	-488.935464	190.565333	1076.406502	-496.159866	206.482537	1107.943826	-485.626846	258.103803	1018.790055	-503.627066	388.719273	929.746228	-488.143988	425.132784	914.438732	-379.651187	348.183381	822.281604	-503.017551	322.978035	742.705198	-475.473616	259.271994	681.728784	-466.908344	349.063799	733.411763	-447.746180	175.989315	565.488901	-450.882869	176.256211	571.399460	-362.275546	94.041806	549.646432	-404.099767	392.095194	512.022999	-423.108468	316.336690	480.425586	-480.844632	-186.259942	934.296805	-287.519576	-17.786006	78.686257	-485.569833	-17.618134	79.160551	-84.949098	
253	1.2650	516.307646	1423.658522	-140.020000	515.794856	1427.864888	-425.105454	484.079623	1482.581272	-286.297583	497.141690	1333.237622	-289.969235	485.655219	1113.031628	-29.687679	691.330120	916.661767	-109.878757	489.311743	1147.007194	-543.140607	687.334172	925.156518	-483.975607	-63.132570	1205.988918	-268.801864	92.299323	1222.093884	-436.462920	110.547340	1175.653643	-120.546844	0.000000	0.000000	-0.000000	141.014576	1121.872010	-174.548017	-21.557445	1239.155334	-224.239033	-33.165858	1256.590173	-296.614458	50.224168	1118.509959	-108.907487	38.738032	1154.224546	-477.833538	116.601474	977.986151	-92.224012	168.263505	906.534999	-102.319557	180.303457	822.379035	-108.168302	199.763868	921.554236	-115.560799	228.479114	684.677851	-132.731645	204.028215	664.962991	-243.375732	179.481276	566.256974	-105.552076	172.321525	476.256958	-120.815164	121.216940	407.295825	-126.257209	202.964709	469.808138	-144.320753	80.988889	261.602637	-131.920557	100.448587	266.297294	-216.844866	6.934364	245.616029	-169.072718	296.387650	162.338009	-162.957592	226.434094	154.654943	-106.829783	105.056701	1094.406450	-488.869461	189.848537	1078.362233	-496.220629	205.978541	1109.869601	-485.928615	256.987210	1020.333642	-503.608250	387.062267	930.602153	-488.484168	423.774581	915.233959	-380.098531	346.333701	823.280830	-503.239746	320.945849	743.760728	-475.661661	257.190521	682.914293	-466.965900	347.154531	734.358904	-448.056760	173.809786	566.767903	-450.768043	174.149430	572.639815	-362.147782	91.120321	551.371254	-404.029075	389.744935	512.443826	-423.159482	313.816711	481.172950	-480.891166	-186.329645	934.278158	-287.535655	-17.809466	78.680117	-485.554312	-17.670105	79.156062	-84.950423	
254	1.2700	518.425023	1424.564341	-140.463015	518.134091	1429.192326	-424.928645	486.409610	1483.520074	-286.565429	499.015373	1334.072261	-290.331067	485.654233	1114.201942	-29.293148	690.701453	917.112996	-109.614308	490.924015	1148.614297	-543.684820	687.434031	925.610732	-484.067644	-62.165987	1209.613240	-267.747878	92.265365	1225.717277	-436.647045	112.431056	1177.967015	-120.992868	0.000000	0.000000	-0.000000	142.357308	1124.741866	-175.197510	-19.998749	1242.687275	-223.338350	-32.110462	1260.029765	-295.481200	51.966368	1121.259011	-108.823199	38.096465	1157.624766	-477.554165	116.897089	980.833955	-92.327041	167.935239	908.907662	-102.425845	179.133039	824.804629	-108.259892	199.411379	923.584394	-115.934579	226.366660	686.419751	-132.739471	201.279980	666.377280	-243.203581	178.469864	567.518638	-105.300511	172.457437	477.498196	-120.557546	122.216442	407.822161	-125.862368	203.142719	471.385196	-144.172299	83.701908	261.496856	-131.494255	103.130048	266.460029	-216.380432	9.840431	246.142580	-168.696100	298.910366	160.979978	-163.055624	228.977625	153.689933	-106.811451	104.365912	1097.128549	-488.810739	189.038848	1080.487162	-496.271605	205.554377	1111.961186	-486.136148	255.787933	1022.019786	-503.645698	385.286581	931.568512	-488.873015	422.447031	916.089092	-380.621226	344.522468	824.285300	-503.635749	319.085077	744.851287	-476.009815	255.209130	684.022715	-467.064578	345.376896	735.250257	-448.449645	171.832506	567.813750	-450.771871	172.248295	573.604675	-362.096374	89.127987	552.696457	-403.923496	387.697062	512.700671	-423.199837	311.607677	481.736760	-480.900498	-186.424303	934.263192	-287.673517	-17.853936	78.660793	-485.558209	-17.672193	79.142683	-84.938824	
